<?xml version="1.0" encoding="utf-8"?>
<!-- Generator: Adobe Illustrator 25.2.1, SVG Export Plug-In . SVG Version: 6.00 Build 0)  -->
<svg version="1.1" id="Capa_1" xmlns="http://www.w3.org/2000/svg" xmlns:xlink="http://www.w3.org/1999/xlink" x="0px" y="0px"
	 viewBox="0 0 512 512" style="enable-background:new 0 0 512 512;" xml:space="preserve">
<style type="text/css">
	.st0{fill:#57A519;}
</style>
<g>
	<path class="st0" d="M504.5,122h-21v-18.5c0-4.1-3.4-7.5-7.5-7.5h-63.6V22c0-12.1-9.9-22-22-22h-31c-12.1,0-22,9.9-22,22v74H216.3
		c-16-21.5-41.5-35.5-70.3-35.5S91.6,74.5,75.7,96H36c-4.1,0-7.5,3.4-7.5,7.5V122h-21c-4.1,0-7.5,3.4-7.5,7.5v360
		c0,4.1,3.4,7.5,7.5,7.5h227.3c3.1,8.7,11.4,15,21.2,15s18.1-6.3,21.2-15h42.6c4.1,0,7.5-3.4,7.5-7.5s-3.4-7.5-7.5-7.5h-41.3v-17
		H476c4.1,0,7.5-3.4,7.5-7.5V191.7c0-4.1-3.4-7.5-7.5-7.5s-7.5,3.4-7.5,7.5V420h-205V111h73.9v124.2v0v25.1c0,4.8,2.8,9,6.8,11.1
		c-1.5,7.3-1.3,18.2,5.3,32.5H301c-4.1,0-7.5,3.4-7.5,7.5c0,4.1,3.4,7.5,7.5,7.5h57.2c2,2.9,4.2,5.9,6.7,9.1c2.4,3,6.1,4.8,10,4.8h0
		c3.9,0,7.6-1.7,10-4.8c2.5-3.1,4.8-6.2,6.7-9.1H431c4.1,0,7.5-3.4,7.5-7.5s-3.4-7.5-7.5-7.5h-30.7c6.6-14.3,6.8-25.2,5.3-32.5
		c4.1-2,6.8-6.2,6.8-11.1V111h56.1v49c0,4.1,3.4,7.5,7.5,7.5c4.1,0,7.5-3.4,7.5-7.5v-23H497v345H352c-4.1,0-7.5,3.4-7.5,7.5
		c0,4.1,3.4,7.5,7.5,7.5h152.5c4.1,0,7.5-3.4,7.5-7.5v-360C512,125.4,508.6,122,504.5,122z M43.5,450v-15h205v15H43.5z M146,75.5
		c40,0,72.5,32.5,72.5,72.5S186,220.5,146,220.5S73.5,188,73.5,148S106,75.5,146,75.5z M138.5,235.2c2.5,0.2,5,0.3,7.5,0.3
		s5-0.1,7.5-0.3V349c0,4.1-3.4,7.5-7.5,7.5s-7.5-3.4-7.5-7.5V235.2z M15,137h13.5v214.5c0,4.1,3.4,7.5,7.5,7.5s7.5-3.4,7.5-7.5V111
		h23.2c-5.3,11.2-8.2,23.8-8.2,37c0,40.5,27.6,74.6,65,84.6V349c0,12.4,10.1,22.5,22.5,22.5s22.5-10.1,22.5-22.5V232.6
		c37.4-10,65-44.1,65-84.6c0-13.2-2.9-25.8-8.2-37h23.2v309h-205v-36c0-4.1-3.4-7.5-7.5-7.5s-7.5,3.4-7.5,7.5v73.5
		c0,4.1,3.4,7.5,7.5,7.5h197.5v17H15V137z M263.5,489.5c0,4.1-3.4,7.5-7.5,7.5s-7.5-3.4-7.5-7.5V465h15V489.5z M468.5,435v15h-205
		v-15H468.5z M354.6,257.7h-2.2v-15h45v15H354.6z M352.4,61.7h45v15h-45V61.7z M352.4,227.7v-136h45v136H352.4z M359.4,15h31
		c3.9,0,7,3.1,7,7v24.7h-45V22C352.4,18.1,355.6,15,359.4,15z M359.3,272.7h8.1v12.5c0,4.1,3.4,7.5,7.5,7.5s7.5-3.4,7.5-7.5v-12.5
		h8.1c1.7,5.8,2.6,20.1-15.6,43.7C356.7,292.8,357.6,278.5,359.3,272.7z"/>
	<path class="st0" d="M301,283.5h19.3c4.1,0,7.5-3.4,7.5-7.5s-3.4-7.5-7.5-7.5H301c-4.1,0-7.5,3.4-7.5,7.5S296.9,283.5,301,283.5z"
		/>
	<path class="st0" d="M438.5,346.7c0-4.1-3.4-7.5-7.5-7.5H301c-4.1,0-7.5,3.4-7.5,7.5c0,4.1,3.4,7.5,7.5,7.5h130
		C435.1,354.2,438.5,350.8,438.5,346.7z"/>
	<path class="st0" d="M301,374.5c-4.1,0-7.5,3.4-7.5,7.5s3.4,7.5,7.5,7.5h46.1c4.1,0,7.5-3.4,7.5-7.5s-3.4-7.5-7.5-7.5H301z"/>
</g>
</svg>
