<?xml version="1.0" encoding="utf-8"?>
<!-- Generator: Adobe Illustrator 25.0.0, SVG Export Plug-In . SVG Version: 6.00 Build 0)  -->
<svg version="1.1" id="Capa_1" xmlns="http://www.w3.org/2000/svg" xmlns:xlink="http://www.w3.org/1999/xlink" x="0px" y="0px"
	 viewBox="0 0 512 512" style="enable-background:new 0 0 512 512;" xml:space="preserve">
<style type="text/css">
	.st0{fill:#57A519;}
</style>
<path class="st0" d="M422,240H322c-8.3,0-15,6.7-15,15s6.7,15,15,15h100c8.3,0,15-6.7,15-15S430.3,240,422,240z"/>
<path class="st0" d="M422,180h-40c-8.3,0-15,6.7-15,15s6.7,15,15,15h40c8.3,0,15-6.7,15-15S430.3,180,422,180z"/>
<path class="st0" d="M422,60H322c-8.3,0-15,6.7-15,15s6.7,15,15,15h100c8.3,0,15-6.7,15-15S430.3,60,422,60z"/>
<path class="st0" d="M497,300V30c8.3,0,15-6.7,15-15s-6.7-15-15-15H247c-8.3,0-15,6.7-15,15s6.7,15,15,15v80h-54.6
	c7.9-11.3,12.6-25.1,12.6-40c0-38.6-31.4-70-70-70S65,31.4,65,70c0,15.5,5.1,29.8,13.6,41.4C34,119.2,0,158.2,0,205v110
	c0,12.3,4.8,23.7,13.6,32.3C22.1,355.5,33.2,360,45,360c0.4,0,0.8,0,1.3,0c4.8-0.1,9.4-1.1,13.7-2.6V467c0,24.8,20.2,45,45,45
	c11.5,0,22-4.4,30-11.5c8,7.1,18.5,11.5,30,11.5c24.8,0,45-20.2,45-45V200h37v100c-8.3,0-15,6.7-15,15s6.7,15,15,15h110v52.4
	l-72.4,106.2c-4.7,6.8-2.9,16.2,3.9,20.8c2.6,1.8,5.5,2.6,8.4,2.6c4.8,0,9.5-2.3,12.4-6.6l47.6-69.8V497c0,8.3,6.7,15,15,15
	s15-6.7,15-15v-61.4l47.6,69.8c2.9,4.3,7.6,6.6,12.4,6.6c2.9,0,5.9-0.8,8.4-2.6c6.8-4.7,8.6-14,3.9-20.8L387,382.4V330h110
	c8.3,0,15-6.7,15-15S505.3,300,497,300L497,300z M135,30c22.1,0,40,17.9,40,40s-17.9,40-40,40S95,92.1,95,70S112.9,30,135,30z
	 M195,170c-8.3,0-15,6.7-15,15v282c0,8.3-6.7,15-15,15s-15-6.7-15-15V317c0-8.3-6.7-15-15-15s-15,6.7-15,15v150c0,8.3-6.7,15-15,15
	s-15-6.7-15-15V208.3c0-8.3-6.7-15-15-15s-15,6.7-15,15v106c0,8.4-6.5,15.4-14.6,15.6c-4.1,0.1-8-1.4-10.9-4.2
	c-2.9-2.9-4.5-6.7-4.5-10.8V205c0-35.8,29.2-65,65-65h217c8.3,0,15,6.7,15,15s-6.7,15-15,15L195,170z M277,300V200h35
	c24.8,0,45-20.2,45-45c0-1.7-0.1-3.4-0.3-5H422c8.3,0,15-6.7,15-15s-6.7-15-15-15h-81.8c-7.7-6.2-17.6-10-28.2-10h-35V30h190v270
	H277z"/>
</svg>
